<?xml version="1.0" standalone="no"?>
<!DOCTYPE svg PUBLIC "-//W3C//DTD SVG 20010904//EN"
 "http://www.w3.org/TR/2001/REC-SVG-20010904/DTD/svg10.dtd">
<svg version="1.0" xmlns="http://www.w3.org/2000/svg"
 width="400.000000pt" height="400.000000pt" viewBox="0 0 400.000000 400.000000"
 preserveAspectRatio="xMidYMid meet">
<metadata>
Created by potrace 1.11, written by Peter Selinger 2001-2013
</metadata>
<g transform="translate(0.000000,400.000000) scale(0.100000,-0.100000)"
fill="#000000" stroke="none">
<path d="M0 3670 l1 -330 23 0 c20 0 24 7 30 43 19 109 19 112 17 390 l-1 227
-35 0 -35 0 0 -330z"/>
<path d="M920 3742 c0 -142 3 -262 7 -266 4 -4 8 -15 8 -24 1 -9 5 -41 9 -69
l9 -53 101 -31 c55 -16 114 -34 130 -40 16 -5 32 -7 35 -4 3 3 7 172 9 375 l4
370 -85 0 -86 0 -4 -32 -4 -33 -1 33 c-1 21 -7 32 -17 32 -8 0 -15 -5 -15 -12
0 -9 -3 -9 -12 0 -7 7 -29 12 -50 12 l-38 0 0 -258z m137 41 c-2 -16 -4 -5 -4
22 0 28 2 40 4 28 2 -13 2 -35 0 -50z m-20 -50 c-2 -21 -4 -4 -4 37 0 41 2 58
4 38 2 -21 2 -55 0 -75z m0 -175 c-2 -24 -4 -7 -4 37 0 44 2 63 4 43 2 -21 2
-57 0 -80z m0 -180 c-2 -24 -4 -7 -4 37 0 44 2 63 4 43 2 -21 2 -57 0 -80z"/>
<path d="M1540 3993 c0 -5 4 -14 9 -21 6 -10 13 -8 32 7 l24 20 -32 1 c-18 0
-33 -3 -33 -7z"/>
<path d="M3318 3993 c-16 -3 -28 -8 -28 -13 0 -4 -6 -7 -12 -7 -20 2 -200 -43
-223 -56 -11 -6 -36 -12 -55 -13 -19 -1 -93 -16 -165 -34 -71 -17 -175 -42
-230 -55 -204 -48 -250 -62 -235 -68 8 -4 3 -5 -12 -2 -19 4 -28 1 -28 -7 0
-10 -2 -10 -9 1 -6 9 -11 10 -15 2 -4 -6 -22 -11 -39 -11 -18 0 -48 -4 -67 -9
-19 -5 -80 -19 -135 -31 -136 -30 -134 -28 -103 -44 32 -17 120 -37 113 -26
-3 5 14 11 37 14 24 4 62 12 85 18 59 15 69 8 77 -51 4 -28 11 -51 16 -51 6 0
10 6 10 13 0 8 17 19 38 25 l37 11 -37 -4 c-37 -4 -38 -3 -38 31 0 37 14 46
23 14 5 -19 6 -20 39 -3 60 30 64 31 91 26 35 -7 35 -28 0 -42 l-28 -11 28 4
c32 4 32 10 17 -239 -6 -88 -7 -195 -4 -238 l7 -79 31 7 c17 3 123 19 236 36
199 29 219 35 220 69 1 51 32 371 40 405 13 56 13 56 -15 49 -24 -6 -25 -4
-25 35 0 31 5 43 22 52 15 8 23 8 26 1 1 -5 14 0 28 13 16 15 45 26 82 31 32
5 55 13 52 19 -3 6 -9 8 -15 6 -5 -2 -34 -9 -62 -16 -50 -12 -53 -12 -53 5 0
10 4 21 9 25 18 11 101 22 101 14 0 -5 7 -9 15 -9 9 0 15 9 15 24 0 29 17 43
50 42 l25 -1 5 -138 c4 -106 8 -140 20 -147 8 -5 19 -6 25 -2 6 4 3 8 -7 10
-14 3 -18 14 -18 56 0 42 3 52 18 52 9 0 31 4 48 8 l31 7 2 -51 c0 -44 -3 -52
-22 -61 -18 -8 -14 -9 21 -5 39 4 42 2 42 -20 0 -14 10 -30 25 -40 26 -17 55
-16 165 5 25 5 72 14 105 20 33 7 67 14 75 18 8 3 30 7 48 9 65 6 72 12 73 57
1 23 3 77 4 120 1 42 -1 79 -5 82 -4 3 -30 -2 -56 -10 -27 -8 -59 -15 -71 -15
-12 0 -42 -6 -65 -14 -24 -8 -60 -17 -80 -20 -37 -7 -38 -6 -38 22 0 35 24 45
73 31 25 -7 34 -6 43 6 13 18 76 27 85 13 4 -7 15 -8 25 -3 11 5 32 9 47 10
38 4 40 7 45 75 l4 60 -288 -2 c-159 -1 -301 -3 -316 -5z m232 -17 c0 -2 -9
-6 -20 -9 -11 -3 -18 -1 -14 4 5 9 34 13 34 5z m33 -172 c5 -27 -8 -37 -61
-49 -32 -7 -33 -6 -27 22 11 49 14 53 30 47 8 -3 15 -2 15 4 0 21 38 -1 43
-24z m-215 -9 c24 -53 15 -72 -38 -77 -18 -2 -24 2 -23 15 0 9 1 30 2 46 1 27
8 33 42 40 3 0 11 -10 17 -24z m112 -10 c0 -33 -28 -64 -44 -48 -3 3 -6 2 -6
-4 0 -6 -9 -9 -20 -6 -21 6 -23 14 -14 49 4 17 37 35 77 43 4 0 7 -15 7 -34z
m310 16 c-20 -12 -87 -25 -78 -16 4 4 22 11 40 15 45 11 56 11 38 1z m-963
-17 c-3 -3 -12 -4 -19 -1 -8 3 -5 6 6 6 11 1 17 -2 13 -5z m-77 -14 c0 -5 -5
-10 -11 -10 -5 0 -7 5 -4 10 3 6 8 10 11 10 2 0 4 -4 4 -10z m925 0 c-16 -4
-41 -8 -55 -8 l-25 0 25 8 c14 4 39 8 55 8 l30 0 -30 -8z m-743 -107 c4 -41
-23 -112 -30 -80 -4 21 -4 21 -88 1 -37 -8 -72 -13 -78 -11 -8 3 -11 19 -8 41
4 31 9 37 41 46 38 10 141 37 153 39 4 0 8 -16 10 -36z m482 -19 c10 -25 7
-34 -9 -34 -9 0 -15 9 -15 25 0 28 15 34 24 9z m-711 -36 c3 -18 2 -37 -2 -41
-9 -9 -179 -42 -186 -36 -2 2 0 20 5 39 4 19 8 29 9 21 1 -11 4 -11 14 3 13
18 90 44 133 45 17 1 23 -6 27 -31z m187 -38 c0 -5 -4 -10 -10 -10 -5 0 -10 5
-10 10 0 6 5 10 10 10 6 0 10 -4 10 -10z"/>
<path d="M1780 3643 c-30 -21 -91 -53 -102 -53 -4 0 -32 -16 -63 -35 -61 -40
-56 -23 -60 -195 -4 -226 -7 -247 -37 -310 -16 -33 -45 -106 -63 -162 -19 -55
-38 -105 -44 -111 -7 -7 -95 9 -278 49 -190 42 -285 58 -328 57 -52 -2 -89 3
-157 23 -10 3 -18 1 -18 -4 0 -6 19 -13 43 -17 23 -4 57 -13 75 -21 29 -12 32
-17 33 -56 2 -30 3 -34 6 -16 2 15 13 34 24 41 10 8 16 17 11 22 -4 4 8 5 27
1 18 -3 41 -6 50 -7 12 0 11 -2 -4 -8 -13 -6 0 -9 40 -9 33 0 74 -5 90 -13 17
-7 49 -14 72 -15 23 -2 51 -8 62 -14 11 -5 31 -10 46 -10 14 0 24 -4 21 -9 -7
-10 17 -21 42 -20 14 0 13 2 -3 10 -16 7 -12 8 14 4 18 -3 40 -5 48 -5 8 0 11
-5 7 -11 -5 -9 1 -10 22 -5 16 4 25 3 19 -1 -5 -4 -11 -16 -13 -26 -3 -16 -24
-60 -60 -122 -19 -34 -40 -88 -52 -133 -6 -23 -24 -57 -40 -76 -31 -34 -60
-94 -60 -120 0 -8 -5 -27 -11 -43 -8 -21 -12 -24 -19 -13 -7 11 -12 11 -23 2
-8 -7 -22 -10 -31 -6 -9 3 -16 1 -16 -5 0 -6 4 -11 10 -11 5 0 14 -9 20 -21
11 -19 10 -20 -9 -10 -11 6 -24 17 -28 24 -9 15 -43 30 -43 20 0 -4 7 -15 17
-25 26 -29 1 -21 -33 12 -18 16 -34 26 -38 23 -3 -4 9 -19 26 -35 22 -19 33
-39 34 -59 l2 -30 -32 24 c-46 35 -54 38 -61 28 -5 -10 84 -81 117 -94 18 -6
32 5 21 17 -4 4 -8 16 -10 27 -4 27 19 20 32 -9 5 -11 17 -23 27 -25 32 -9 20
20 -22 53 -55 44 -44 50 14 8 28 -20 44 -39 42 -49 -2 -12 2 -15 15 -12 11 3
19 1 19 -5 0 -14 -26 -18 -107 -16 -56 1 -73 -2 -73 -12 0 -8 5 -14 10 -14 6
0 10 -7 10 -15 0 -15 -27 -33 -47 -29 -7 1 -31 2 -53 3 l-41 1 5 38 6 37 -10
-32 c-13 -39 -44 -60 -66 -42 -10 8 -14 8 -14 0 0 -6 -5 -11 -12 -11 -9 0 -9
3 0 12 9 9 11 74 10 242 l-2 231 -5 -226 c-7 -250 -9 -259 -68 -259 -31 0 -34
2 -29 23 6 22 6 22 -5 1 -12 -24 -58 -37 -94 -28 -15 4 -25 15 -29 35 -3 16
-10 29 -16 29 -16 0 -12 -30 6 -48 13 -13 14 -17 3 -21 -18 -7 -22 -26 -14
-62 10 -42 25 -35 25 11 0 28 4 40 14 40 8 0 17 -6 19 -12 4 -10 8 -9 16 2 13
19 17 14 29 -40 l10 -45 1 48 c1 35 5 47 16 47 15 0 18 -53 18 -347 0 -69 3
-93 13 -93 8 0 11 12 10 35 -2 24 1 35 10 35 9 0 14 -12 14 -35 0 -19 4 -35 9
-35 15 0 16 15 9 112 -12 179 -9 314 7 328 17 14 17 6 16 -250 0 -160 16 -241
20 -100 1 52 1 152 -1 221 -1 85 1 129 9 133 6 4 11 4 12 -1 0 -4 2 -21 4 -38
4 -41 6 -365 3 -390 -3 -17 4 -21 35 -23 l37 -3 0 58 c0 33 4 63 9 69 5 5 11
18 14 29 3 11 5 -19 6 -67 1 -51 5 -88 11 -88 6 0 10 27 10 61 0 53 3 62 20
66 20 5 20 10 14 164 -5 117 -4 159 4 159 7 0 12 -9 12 -20 0 -22 15 -27 23
-7 3 6 5 -33 4 -88 l-1 -100 -6 80 -6 80 -2 -71 c-3 -91 8 -195 19 -188 5 3 9
-12 9 -33 0 -55 11 -113 21 -113 5 0 9 7 9 15 0 8 4 15 8 15 4 0 5 -21 2 -47
l-5 -48 -125 -7 c-69 -4 -143 -11 -165 -16 l-40 -8 2 -58 c2 -31 9 -71 17 -89
8 -18 17 -46 20 -63 7 -44 56 -145 67 -138 5 3 14 2 20 -2 8 -4 3 -12 -12 -21
-21 -12 -17 -12 41 -7 36 4 72 8 79 9 8 1 20 10 25 21 6 10 21 33 33 51 13 17
23 34 23 37 0 3 -15 12 -34 20 -30 13 -35 19 -41 63 -9 67 -14 73 -71 79 -65
7 -108 -6 -112 -34 -2 -12 -7 -22 -12 -22 -4 0 -6 9 -3 20 4 14 0 20 -10 20
-12 0 -15 9 -12 41 5 44 15 65 16 33 0 -17 1 -17 9 2 10 24 59 34 171 34 65 0
69 -1 75 -25 3 -14 10 -25 15 -25 5 0 9 -45 9 -101 0 -92 2 -101 17 -94 93 38
232 88 255 91 26 3 27 2 13 -12 -8 -9 -15 -20 -15 -25 0 -6 7 -4 15 4 8 9 20
17 27 19 10 4 10 10 0 32 -10 23 -10 30 3 43 9 8 13 18 10 21 -3 4 -10 0 -15
-8 -7 -11 -11 -11 -23 -2 -12 10 -18 9 -31 -3 -14 -14 -16 -14 -16 -1 0 8 7
19 16 24 13 7 14 13 5 30 -7 13 -9 38 -5 62 6 35 8 38 19 23 10 -14 12 -8 8
33 -6 66 17 101 95 142 34 17 63 31 65 30 1 0 21 9 44 21 44 22 73 27 73 13 0
-5 14 -9 30 -9 17 0 30 4 30 8 0 4 14 3 31 -3 22 -8 27 -13 18 -19 -10 -6 -9
-10 6 -15 11 -5 20 -3 23 4 2 7 8 12 13 12 4 0 6 -7 3 -15 -5 -11 -2 -13 10
-9 9 3 16 10 16 15 0 5 8 9 18 9 13 0 22 -16 35 -64 20 -76 21 -106 5 -106 -7
0 2 -13 19 -28 20 -16 35 -40 40 -61 l6 -35 -37 22 c-55 32 -108 29 -191 -13
-47 -23 -60 -33 -40 -30 51 8 58 -5 30 -61 -57 -115 -81 -201 -54 -192 7 2 13
15 15 29 5 52 54 139 78 139 2 0 10 -21 16 -47 10 -37 19 -51 43 -63 40 -19
56 -60 27 -67 -28 -8 -25 -21 4 -16 26 5 66 -12 66 -28 0 -6 -16 -29 -35 -52
-48 -56 -47 -76 6 -74 50 2 72 -20 51 -53 -10 -16 -9 -25 8 -52 18 -29 20 -51
20 -185 l0 -153 55 0 c50 0 56 2 70 30 8 16 15 54 15 86 0 31 5 73 11 94 9 30
8 43 -5 69 -41 78 -96 363 -74 377 4 3 35 -7 69 -21 73 -31 139 -40 196 -27
l41 9 7 -36 c3 -20 12 -157 19 -306 8 -148 19 -333 26 -411 14 -155 13 -153
97 -170 51 -10 56 11 56 243 1 164 4 203 14 199 8 -3 36 0 63 6 28 6 52 9 55
6 19 -18 43 -214 49 -385 3 -105 9 -198 12 -207 5 -14 31 -16 182 -16 l176 0
25 30 c26 30 26 30 71 16 117 -37 269 -60 244 -37 -9 9 -91 31 -134 37 -14 2
-47 6 -75 10 -27 3 -55 13 -62 21 -9 12 -24 14 -62 9 -35 -5 -73 -1 -128 13
-43 11 -108 23 -145 27 -38 3 -68 10 -68 15 0 5 6 9 14 9 8 0 16 11 18 24 3
23 4 23 49 12 25 -7 68 -27 94 -44 62 -41 103 -41 221 -3 49 16 109 32 133 36
40 7 42 9 36 34 -10 42 -53 80 -94 83 -32 3 -36 6 -33 28 2 14 5 71 6 127 3
94 2 102 -17 107 -16 4 -19 10 -14 35 5 24 2 34 -13 43 -11 7 -20 20 -20 30 0
9 -11 30 -25 46 -14 17 -25 34 -25 38 -1 25 -40 51 -85 58 -114 17 -191 22
-208 14 -18 -9 -57 -2 -57 10 0 10 96 49 152 63 26 6 46 15 43 19 -3 4 -36 15
-74 25 -54 13 -74 14 -91 5 -23 -12 -50 -7 -50 10 0 21 102 60 159 60 l56 1
-55 24 c-63 28 -82 30 -110 13 -15 -10 -22 -10 -31 -1 -17 17 -4 41 28 49 15
4 34 15 41 25 11 16 15 17 47 3 54 -22 66 -19 58 18 -4 22 -3 29 5 24 27 -16
-6 50 -37 76 -23 19 -28 38 -10 38 19 0 -11 30 -30 30 -15 1 -71 43 -71 55 0
3 12 5 27 5 20 0 24 3 16 11 -6 6 -9 17 -6 25 7 18 32 -7 68 -69 15 -27 33
-51 40 -53 7 -3 37 -35 66 -72 56 -70 98 -109 112 -104 14 4 20 -30 7 -38 -10
-6 -11 -12 -3 -22 6 -7 13 -24 16 -38 4 -24 4 -24 6 3 1 25 4 27 24 21 37 -11
47 -25 47 -65 0 -31 -4 -38 -22 -41 -27 -4 -26 -23 4 -85 16 -32 25 -40 34
-32 7 5 23 7 37 4 15 -4 30 -1 40 9 22 22 84 21 90 -2 4 -14 5 -14 6 -1 1 16
29 17 71 2 8 -3 33 -7 54 -8 21 -2 43 -10 47 -17 6 -9 9 -9 9 -1 0 15 71 5 83
-11 5 -8 10 -7 16 2 12 19 81 5 82 -17 0 -10 2 -11 6 -3 5 13 79 17 87 4 3 -5
6 -69 7 -143 1 -74 5 -143 10 -154 4 -11 8 -15 8 -9 1 6 7 11 14 11 7 0 28 11
46 24 24 18 29 25 17 27 -14 3 -16 22 -16 124 0 110 1 120 18 113 24 -10 102
-13 102 -4 0 13 -15 18 -51 20 -71 3 -66 -25 -63 332 2 394 0 357 24 357 20 0
21 -5 19 -105 -1 -58 -5 -105 -9 -105 -4 0 -4 -19 2 -43 5 -23 8 -54 5 -70 -2
-15 0 -27 5 -27 7 0 13 83 9 117 -1 7 3 13 8 13 7 0 10 38 9 98 -1 95 5 128
21 118 4 -3 6 -76 5 -163 -2 -110 0 -146 6 -118 5 22 9 237 9 477 1 340 -2
437 -11 441 -10 4 -10 6 0 6 6 1 12 12 12 25 0 28 -30 39 -66 25 -19 -7 -26
-5 -30 6 -5 13 -8 13 -21 0 -16 -16 -43 -20 -43 -7 0 10 33 42 44 42 4 0 15 8
24 17 16 16 17 15 20 -1 2 -9 -2 -24 -10 -33 -11 -14 -11 -16 2 -8 8 4 27 16
41 26 14 10 29 16 33 12 3 -3 6 46 6 111 l0 117 -67 -5 c-38 -3 -104 -8 -148
-11 -44 -3 -168 -12 -275 -20 -107 -8 -267 -19 -355 -25 -88 -6 -218 -15 -288
-20 -71 -5 -135 -14 -143 -21 -10 -8 -14 -8 -14 0 0 6 -13 11 -30 11 -25 0
-30 -4 -30 -24 0 -18 -6 -25 -22 -28 -19 -2 -24 -11 -29 -48 -10 -72 3 -77 41
-18 25 38 36 48 38 36 2 -10 10 -18 18 -18 17 0 19 -37 4 -76 -6 -15 -8 -40
-5 -55 5 -23 13 -28 48 -34 23 -3 59 -7 80 -8 45 -1 50 -17 5 -17 -29 0 -30
-1 -16 -17 8 -10 27 -44 42 -75 31 -66 32 -104 1 -101 -11 1 -33 -2 -48 -7
-31 -10 -117 3 -152 24 -53 32 -74 36 -91 19 -14 -14 -22 -15 -65 -4 -32 9
-54 10 -62 3 -6 -5 -25 -12 -42 -16 -16 -4 -32 -12 -36 -17 -10 -17 3 -70 20
-76 9 -3 23 -14 31 -24 19 -22 33 -24 98 -15 41 6 55 13 65 33 l14 25 15 -25
c9 -13 33 -39 52 -58 20 -18 36 -40 36 -47 0 -11 -3 -12 -13 -4 -10 8 -16 6
-25 -9 -15 -24 -56 -25 -148 -3 -37 8 -77 13 -89 10 -53 -13 -101 -75 -116
-146 -6 -32 -7 -31 -9 20 -2 50 -3 52 -9 20 l-7 -35 -9 35 -9 35 -6 -45 c-4
-31 -2 -49 8 -57 11 -9 10 -12 -6 -17 -16 -5 -20 -15 -18 -44 1 -20 6 -44 10
-52 5 -8 -10 3 -33 25 -23 22 -48 52 -55 67 -13 26 -13 26 10 16 36 -17 38 -5
10 49 -22 45 -23 50 -8 60 16 10 16 13 0 41 -17 29 -17 30 2 35 18 5 19 7 5
34 -20 37 -19 54 1 46 14 -5 15 0 9 35 -6 38 -5 40 16 35 20 -6 22 -4 16 25
-8 39 0 62 20 62 12 0 14 7 10 29 -7 34 1 45 20 30 10 -9 13 -8 13 1 0 7 7 10
15 6 10 -3 17 3 21 19 5 19 11 23 35 20 40 -5 96 -25 153 -56 40 -22 54 -25
72 -17 19 9 38 4 110 -31 92 -44 114 -49 114 -27 0 19 -27 39 -41 31 -6 -4
-42 5 -81 21 -62 25 -69 30 -67 53 5 46 -34 100 -96 136 -51 29 -85 40 -85 26
0 -6 7 -11 16 -11 21 0 106 -59 99 -70 -3 -5 -1 -11 5 -15 16 -10 12 -62 -6
-69 -25 -10 -27 -8 -21 21 6 35 -8 64 -28 57 -9 -4 -15 0 -15 9 0 20 -27 42
-32 26 -3 -9 -19 -7 -60 5 -63 18 -112 21 -103 6 3 -6 -4 -9 -19 -8 -22 2 -40
-4 -96 -32 -32 -15 -99 -22 -117 -11 -14 9 -11 10 17 5 52 -8 185 60 185 95 0
15 8 27 20 32 12 4 -24 8 -85 9 -83 1 -112 5 -140 20 l-35 19 33 -6 c42 -7 41
1 -6 31 -21 13 -39 31 -39 40 0 18 26 47 73 84 19 16 22 21 9 16 -11 -3 -54
-15 -96 -25 -42 -10 -101 -32 -132 -49 -30 -16 -65 -30 -76 -30 -12 0 -21 -6
-21 -15 0 -8 -24 -33 -52 -55 -29 -22 -65 -52 -81 -65 -15 -14 -31 -25 -36
-25 -5 0 -14 -6 -20 -14 -22 -27 -248 -91 -286 -82 -30 8 -31 24 -4 73 34 61
69 92 149 133 41 21 103 58 137 83 34 25 81 56 105 68 23 12 68 43 98 69 63
54 83 66 148 86 57 17 111 18 149 3 15 -7 44 -15 63 -18 31 -6 35 -10 32 -34
-3 -26 -2 -27 51 -27 36 0 59 -5 67 -15 7 -8 23 -15 36 -15 13 0 44 -7 69 -16
44 -15 47 -14 63 6 18 22 57 19 49 -4 -3 -6 13 -19 35 -28 l39 -17 -30 37
c-57 70 -156 167 -189 185 -19 9 -36 25 -39 35 -2 9 -26 34 -53 55 -58 45 -65
69 -51 169 5 40 13 127 16 193 7 133 28 248 50 282 15 22 21 52 9 40 -7 -7
-54 46 -54 60 0 16 -63 70 -115 99 -47 25 -62 33 -108 56 -10 5 -28 6 -40 3
-15 -4 -18 -3 -9 3 11 7 10 10 -3 16 -9 3 -21 3 -27 0 -6 -4 -13 -2 -17 4 -3
5 -28 13 -56 16 -39 5 -55 3 -75 -11z m40 3 c0 -3 -4 -8 -10 -11 -5 -3 -10 -1
-10 4 0 6 5 11 10 11 6 0 10 -2 10 -4z m280 -1052 c0 -8 -5 -12 -10 -9 -6 4
-8 11 -5 16 9 14 15 11 15 -7z m231 -55 c57 -25 58 -35 3 -21 -22 6 -51 13
-66 16 -16 4 -28 11 -28 16 0 16 38 11 91 -11z m114 -57 c-3 -3 -11 0 -18 7
-9 10 -8 11 6 5 10 -3 15 -9 12 -12z m1405 -261 c0 -17 -12 -41 -21 -41 -10 0
-12 33 -2 43 9 10 23 9 23 -2z m115 -1 c-3 -5 -10 -10 -16 -10 -5 0 -9 5 -9
10 0 6 7 10 16 10 8 0 12 -4 9 -10z m-329 -16 c22 -15 24 -15 18 0 -5 13 1 16
35 16 30 0 41 -4 41 -16 0 -8 4 -13 9 -9 6 3 14 -3 20 -12 6 -10 11 -13 11 -6
0 6 -4 15 -10 18 -20 12 -9 26 17 23 23 -2 28 -8 28 -32 0 -28 -2 -30 -53 -34
-35 -2 -59 1 -69 10 -12 9 -15 10 -9 1 5 -10 -3 -13 -32 -13 -29 0 -45 7 -66
29 l-28 29 23 5 c13 2 28 5 32 6 4 0 19 -6 33 -15z m-184 -21 c36 -35 35 -43
-6 -43 -25 0 -40 7 -55 26 -28 35 -26 44 6 44 16 0 39 -11 55 -27z m78 17 c0
-5 6 -10 13 -10 15 0 48 -36 40 -44 -4 -3 -23 -6 -44 -6 -30 0 -42 6 -58 29
-28 39 -27 41 14 41 19 0 35 -4 35 -10z m-2412 -12 c16 -16 15 -29 -2 -22 -16
6 -30 34 -18 34 5 0 13 -5 20 -12z m2052 3 c0 -5 12 -17 27 -27 l28 -17 -18
26 -17 27 30 0 c29 0 94 -45 85 -60 -2 -3 -37 -7 -77 -7 -55 -1 -77 2 -91 15
-17 15 -17 15 -11 -1 5 -14 -1 -17 -37 -18 -24 -1 -53 -2 -64 -3 -11 -1 -25 2
-32 7 -6 4 -14 3 -18 -3 -12 -19 -51 -10 -79 19 l-27 28 26 5 c16 4 28 1 31
-7 3 -7 15 -15 26 -18 16 -5 18 -3 9 6 -6 6 -11 15 -11 19 0 10 60 11 60 1 0
-5 13 -17 28 -27 27 -20 27 -20 10 0 -25 28 -23 34 12 34 21 0 30 -5 30 -16 0
-9 5 -14 11 -12 6 2 10 7 9 12 -1 5 4 13 12 17 17 11 48 11 48 0z m203 -21
l32 -30 -42 0 c-35 0 -45 5 -63 30 l-21 30 31 0 c21 0 42 -10 63 -30z m-1136
14 c-3 -3 -12 -4 -19 -1 -8 3 -5 6 6 6 11 1 17 -2 13 -5z m634 -25 c16 -11 29
-25 29 -30 0 -14 -70 -11 -71 4 0 10 -2 10 -6 0 -8 -22 -43 -15 -43 8 0 14 5
19 14 16 10 -4 13 -1 9 9 -8 22 34 18 68 -7z m-101 -11 c0 -21 -11 -23 -28 -6
-18 18 -15 27 8 25 12 -1 20 -8 20 -19z m-1602 -8 c7 -11 9 -20 4 -20 -4 0
-13 9 -20 20 -7 11 -9 20 -4 20 4 0 13 -9 20 -20z m-33 -21 c-4 -5 -12 -3 -21
5 -20 21 -17 28 6 16 11 -6 18 -15 15 -21z m1605 -14 c0 -5 -5 -3 -10 5 -5 8
-10 20 -10 25 0 6 5 3 10 -5 5 -8 10 -19 10 -25z m-1575 -5 c3 -5 1 -10 -4
-10 -6 0 -11 5 -11 10 0 6 2 10 4 10 3 0 8 -4 11 -10z m725 -24 c0 -12 -3 -26
-6 -29 -13 -13 -21 3 -16 32 5 35 22 32 22 -3z m1745 24 c-3 -5 -11 -10 -16
-10 -6 0 -7 5 -4 10 3 6 11 10 16 10 6 0 7 -4 4 -10z m95 0 c-19 -13 -30 -13
-30 0 0 6 10 10 23 10 18 0 19 -2 7 -10z m88 3 c-10 -2 -26 -2 -35 0 -10 3 -2
5 17 5 19 0 27 -2 18 -5z m139 1 c-3 -3 -12 -4 -19 -1 -8 3 -5 6 6 6 11 1 17
-2 13 -5z m-507 -8 c0 -3 -4 -8 -10 -11 -5 -3 -10 -1 -10 4 0 6 5 11 10 11 6
0 10 -2 10 -4z m120 -2 c-34 -7 -108 -8 -103 -1 2 4 30 6 61 6 31 -1 50 -3 42
-5z m-640 -24 c-14 -4 -34 -4 -45 -1 -15 4 -12 7 15 11 41 7 66 -1 30 -10z
m175 10 c4 -6 -22 -9 -72 -8 l-78 2 70 6 c39 4 71 7 72 8 1 1 5 -2 8 -8z m75
0 c-8 -5 -26 -9 -40 -9 -21 0 -22 2 -7 8 10 4 28 8 40 8 17 2 19 0 7 -7z m148
3 c-21 -2 -55 -2 -75 0 -21 2 -4 4 37 4 41 0 58 -2 38 -4z m-1352 -59 c8 -20
13 -39 10 -41 -11 -11 15 -43 34 -43 13 0 20 -7 20 -19 0 -27 -15 -34 -30 -15
-9 10 -22 13 -43 8 l-29 -6 8 53 c4 30 7 64 6 77 -2 32 7 27 24 -14z m-56 -46
c0 -29 -15 -28 -53 5 -51 44 -47 58 8 33 27 -13 45 -28 45 -38z m1628 2 c-3
-23 -1 -29 8 -26 8 3 16 1 19 -4 6 -10 2 -12 -50 -15 -41 -3 -45 1 -33 35 10
32 23 38 31 18 3 -9 7 -7 12 5 11 27 18 20 13 -13z m103 -10 c5 0 9 -7 9 -16
0 -8 -4 -12 -10 -9 -5 3 -10 1 -10 -4 0 -6 -7 -11 -15 -11 -9 0 -15 9 -15 25
0 14 5 25 10 25 6 0 11 8 11 18 1 11 3 9 6 -5 2 -13 9 -23 14 -23z m54 22 c-3
-3 -11 0 -18 7 -9 10 -8 11 6 5 10 -3 15 -9 12 -12z m-711 -8 c3 -8 2 -12 -4
-9 -6 3 -10 10 -10 16 0 14 7 11 14 -7z m76 6 c0 -5 -2 -10 -4 -10 -3 0 -8 5
-11 10 -3 6 -1 10 4 10 6 0 11 -4 11 -10z m-1960 -7 c0 -2 -5 -14 -12 -26 -13
-24 -17 -87 -5 -87 4 0 7 9 7 20 0 11 5 20 11 20 5 0 7 5 4 11 -10 16 3 56 20
63 17 6 18 17 -11 -219 -8 -71 -17 -132 -20 -134 -2 -2 -4 31 -4 74 0 61 -3
76 -12 67 -7 -7 -12 -53 -12 -129 -1 -64 -2 -109 -4 -100 -2 9 -7 17 -11 17
-4 0 -9 53 -11 118 -4 152 -4 138 5 207 5 33 8 69 8 80 0 14 6 20 23 21 13 1
24 0 24 -3z m1808 -28 c-3 -3 -9 2 -12 12 -6 14 -5 15 5 6 7 -7 10 -15 7 -18z
m1002 -7 c0 -5 -4 -8 -10 -8 -5 0 -10 10 -10 23 0 18 2 19 10 7 5 -8 10 -18
10 -22z m-115 13 c3 -5 1 -12 -5 -16 -5 -3 -10 1 -10 9 0 18 6 21 15 7z
m-1931 -16 c-6 -16 -24 -21 -24 -7 0 11 11 22 21 22 5 0 6 -7 3 -15z m1836 5
c0 -5 -7 -10 -16 -10 -8 0 -12 5 -9 10 3 6 10 10 16 10 5 0 9 -4 9 -10z m55 0
c3 -5 -1 -10 -10 -10 -9 0 -13 5 -10 10 3 6 8 10 10 10 2 0 7 -4 10 -10z
m-2901 -46 c3 -26 7 -74 8 -108 1 -44 3 -33 7 41 3 56 9 105 14 109 15 16 22
-11 25 -100 4 -90 3 -94 -22 -113 -14 -12 -26 -25 -26 -29 0 -18 -22 -86 -26
-82 -7 8 -15 289 -9 309 11 32 22 21 29 -27z m-140 -1 c3 -21 6 -100 6 -177 0
-116 -2 -137 -14 -127 -10 8 -15 51 -18 158 -3 81 -3 155 0 165 7 29 19 21 26
-19z m1166 -35 c0 -10 -4 -18 -10 -18 -5 0 -10 5 -10 10 0 6 -16 20 -35 31
-19 12 -32 25 -29 30 8 14 84 -34 84 -53z m1811 -38 c-1 -78 9 -124 24 -108 7
6 12 44 14 96 0 17 6 32 12 32 6 0 8 -9 4 -20 -5 -16 -2 -20 14 -20 12 0 20 3
20 8 -1 4 -1 18 0 32 1 22 3 23 12 8 5 -10 8 -39 5 -65 -2 -27 -5 -56 -5 -65
-1 -15 -11 -18 -61 -18 l-60 0 0 106 c0 75 3 105 11 102 8 -3 11 -32 10 -88z
m215 52 c1 -15 5 -60 9 -99 6 -56 5 -73 -5 -73 -9 0 -10 -4 -2 -13 6 -7 11
-57 11 -115 0 -95 -1 -102 -20 -102 -19 0 -20 6 -18 173 2 94 4 194 7 220 4
50 16 55 18 9z m-986 24 c0 -2 -7 -7 -16 -10 -8 -3 -12 -2 -9 4 6 10 25 14 25
6z m584 -40 c-1 -18 -4 -38 -8 -44 -4 -8 0 -12 11 -12 16 0 18 6 15 41 -5 44
6 63 30 54 16 -6 13 -65 -5 -77 -6 -4 -4 -13 7 -24 13 -12 16 -26 12 -48 -9
-44 -24 -55 -42 -32 -8 11 -14 14 -14 8 0 -7 -9 -12 -20 -12 -20 0 -20 4 -16
93 3 50 6 93 6 94 0 1 6 0 13 -2 6 -3 12 -20 11 -39z m-1554 14 c-20 -13 -43
-13 -35 0 3 6 16 10 28 10 18 0 19 -2 7 -10z m655 -12 c14 -6 25 -15 25 -20 0
-5 4 -7 8 -4 16 10 97 -21 100 -38 2 -11 -2 -15 -15 -12 -64 13 -82 20 -87 31
-2 7 -18 16 -35 20 -17 4 -31 13 -31 21 0 17 2 17 35 2z m-610 -8 c4 -6 4 -24
0 -40 -5 -25 -12 -30 -36 -30 -39 0 -39 -28 1 -41 17 -6 30 -15 30 -19 0 -5
-14 -4 -30 2 -17 5 -37 7 -45 4 -12 -4 -15 5 -15 49 l0 54 36 -6 c34 -6 36 -4
29 16 -4 15 -2 21 9 21 8 0 18 -5 21 -10z m975 -19 c0 -17 -15 -19 -28 -5 -11
12 -9 14 8 14 11 0 20 -4 20 -9z m270 -12 c0 -6 9 -8 20 -4 11 4 20 2 20 -4 0
-17 -56 -13 -70 4 -10 13 -9 15 9 15 11 0 21 -5 21 -11z m-581 -43 c28 -29 30
-34 13 -29 -12 3 -27 11 -33 19 -6 8 -18 14 -26 14 -13 0 -13 3 -3 15 7 8 13
15 14 15 1 0 17 -15 35 -34z m1321 -26 c0 -27 -4 -50 -10 -50 -11 0 -24 65
-16 85 12 32 26 13 26 -35z m-1232 -48 c6 -18 -15 -14 -22 4 -4 10 -1 14 6 12
6 -2 14 -10 16 -16z m62 -1 c0 -12 -39 -21 -45 -11 -6 10 1 15 25 17 11 1 20
-2 20 -6z m748 -49 c2 -18 -2 -40 -9 -49 -12 -13 -15 -13 -27 4 -10 13 -16 14
-19 6 -3 -7 -13 -13 -23 -13 -16 0 -18 6 -13 38 7 43 15 51 57 49 27 -2 31 -6
34 -35z m237 -70 l1 -103 -65 3 -66 3 -3 50 c-2 28 -1 73 3 101 l6 51 61 -1
62 -1 1 -103z m-2310 88 c-3 -5 -12 -10 -18 -10 -7 0 -6 4 3 10 19 12 23 12
15 0z m510 0 c3 -6 -1 -7 -9 -4 -18 7 -21 14 -7 14 6 0 13 -4 16 -10z m1229 1
c4 -5 -3 -7 -14 -4 -23 6 -26 13 -6 13 8 0 17 -4 20 -9z m755 -97 c0 -78 -3
-104 -12 -101 -13 4 -28 83 -18 93 6 6 7 13 10 77 0 20 5 37 11 37 5 0 9 -45
9 -106z m-1994 52 c16 -1 45 -41 45 -62 0 -15 -29 1 -40 21 -7 14 -19 25 -25
25 -6 0 -20 7 -31 16 -18 14 -18 15 6 8 14 -4 34 -8 45 -8z m1079 -21 c3 -8 1
-15 -4 -15 -6 0 -10 7 -10 15 0 8 2 15 4 15 2 0 6 -7 10 -15z m566 7 c0 -4 -9
-8 -20 -9 -11 -1 -20 2 -20 8 0 5 9 9 20 9 11 0 20 -4 20 -8z m-530 -27 c0 -8
-4 -15 -10 -15 -5 0 -10 7 -10 15 0 8 5 15 10 15 6 0 10 -7 10 -15z m403 -82
c-6 -16 -40 -17 -45 -2 -9 26 5 78 21 81 11 3 18 -6 22 -32 4 -19 4 -40 2 -47z
m41 71 c12 -5 14 -10 6 -19 -8 -9 -8 -15 0 -20 23 -14 5 -55 -26 -55 -2 0 -4
23 -4 50 0 28 2 50 4 50 2 0 12 -3 20 -6z m72 -50 c11 4 14 1 12 -12 -2 -9 -7
-15 -12 -14 -5 2 -13 -2 -17 -10 -5 -8 -8 9 -7 42 1 37 3 44 5 22 3 -25 8 -32
19 -28z m-732 20 c3 -8 2 -12 -4 -9 -6 3 -10 10 -10 16 0 14 7 11 14 -7z m341
-24 c3 -5 2 -10 -4 -10 -5 0 -13 5 -16 10 -3 6 -2 10 4 10 5 0 13 -4 16 -10z
m275 -142 l0 -98 -29 0 c-16 0 -33 6 -39 13 -14 17 -3 77 14 77 12 0 12 4 -1
24 -13 19 -14 29 -5 45 6 12 7 21 3 21 -4 0 -2 4 6 9 8 5 23 9 33 8 16 -1 18
-12 18 -99z m-620 61 c0 -5 -7 -6 -15 -3 -8 4 -15 13 -15 21 0 13 3 13 15 3 8
-7 15 -16 15 -21z m720 -72 c0 -86 -2 -98 -16 -93 -9 3 -28 6 -44 6 -27 0 -28
2 -25 43 2 23 4 65 4 94 l1 52 40 -2 40 -1 0 -99z m191 96 c2 -11 2 -53 0
-381 l-1 -293 -42 3 -43 3 1 73 c1 39 -2 72 -7 72 -5 0 -9 -32 -9 -71 l0 -70
-82 7 c-46 3 -86 9 -90 13 -4 3 -9 76 -11 161 l-3 155 -2 -158 -2 -159 -27 6
c-16 3 -50 8 -78 11 -27 3 -72 8 -100 11 -27 3 -59 7 -70 7 -12 1 -21 10 -23
23 -2 16 -8 20 -23 17 -10 -3 -19 0 -19 6 0 6 6 11 13 11 7 0 6 4 -4 10 -9 5
-15 19 -13 32 1 13 3 29 3 36 1 9 8 11 21 7 17 -5 20 -2 20 20 0 21 -4 25 -19
20 -16 -5 -18 2 -20 71 -2 73 -1 76 18 71 12 -3 19 -1 15 4 -3 5 -12 9 -20 9
-8 0 -14 5 -14 10 0 18 27 11 54 -15 23 -21 35 -25 74 -21 46 3 47 5 62 50 12
37 19 46 35 44 17 -3 21 -13 26 -63 5 -57 6 -58 8 -15 3 63 11 76 46 76 29 -1
30 -2 33 -58 4 -68 17 -78 18 -13 1 50 15 72 44 70 28 -2 32 -8 40 -72 l7 -58
2 48 c1 37 7 53 26 71 23 22 25 29 25 125 l0 101 65 0 c36 0 65 -3 66 -7z
m-167 -99 c1 -47 -2 -88 -6 -91 -5 -2 -8 40 -8 93 0 54 3 94 7 91 3 -4 7 -45
7 -93z m-347 57 c-7 -2 -15 -9 -19 -15 -5 -6 -8 -2 -8 10 0 28 9 35 25 21 9
-9 10 -13 2 -16z m-217 -25 c0 -2 -7 -6 -15 -10 -8 -3 -15 -1 -15 4 0 6 7 10
15 10 8 0 15 -2 15 -4z m153 -3 c-7 -2 -21 -2 -30 0 -10 3 -4 5 12 5 17 0 24
-2 18 -5z m-435 -213 c7 -11 9 -20 4 -20 -10 0 -32 22 -32 32 0 15 15 8 28
-12z m276 -16 c3 -9 -1 -13 -12 -11 -25 4 -43 17 -37 27 7 12 43 1 49 -16z
m87 12 c-9 -11 -9 -15 1 -20 11 -5 11 -7 0 -12 -10 -4 -10 -9 -2 -20 7 -7 9
-18 5 -24 -11 -18 -32 -11 -38 13 -2 12 -8 30 -12 40 -5 12 -3 17 9 17 9 0 16
5 16 10 0 6 7 10 16 10 13 0 14 -3 5 -14z m-2251 -26 c8 -5 11 -12 8 -16 -4
-4 2 -18 12 -32 24 -30 25 -38 4 -46 -12 -4 -15 -2 -10 9 3 8 0 15 -7 15 -7 0
-12 -11 -12 -25 0 -23 3 -25 35 -20 29 3 28 2 -8 -7 -41 -11 -43 -10 -72 22
-36 41 -37 54 -5 85 27 27 33 29 55 15z m2250 -105 c0 -19 -2 -18 -20 5 -11
14 -20 19 -20 12 0 -7 -4 -10 -10 -7 -5 3 -10 12 -10 20 0 11 6 11 30 2 20 -8
30 -18 30 -32z m-2160 -4 c0 -6 -4 -13 -10 -16 -5 -3 -10 1 -10 9 0 9 5 16 10
16 6 0 10 -4 10 -9z m2160 -156 c0 -8 -7 -15 -16 -15 -14 0 -14 3 -4 15 7 8
14 15 16 15 2 0 4 -7 4 -15z m-690 -400 c0 -37 -4 -65 -10 -65 -6 0 -10 28
-10 65 0 37 4 65 10 65 6 0 10 -28 10 -65z m488 -92 c15 -34 15 -56 0 -51 -18
6 -51 65 -43 77 9 16 29 3 43 -26z m222 -173 c0 -5 -9 -10 -20 -10 -11 0 -20
5 -20 10 0 6 9 10 20 10 11 0 20 -4 20 -10z"/>
<path d="M1081 1825 c0 -35 2 -37 11 -19 7 15 7 28 -1 40 -9 16 -10 12 -10
-21z"/>
<path d="M1063 1760 c0 -30 2 -43 4 -27 2 15 2 39 0 55 -2 15 -4 2 -4 -28z"/>
<path d="M3710 1629 c7 -11 14 -19 16 -16 7 7 -7 37 -17 37 -6 0 -5 -9 1 -21z"/>
<path d="M3708 1570 c5 -36 7 -35 16 3 4 19 3 27 -7 27 -9 0 -12 -9 -9 -30z"/>
<path d="M3570 1420 c0 -5 5 -10 10 -10 6 0 10 5 10 10 0 6 -4 10 -10 10 -5 0
-10 -4 -10 -10z"/>
<path d="M3570 1385 c0 -8 5 -15 10 -15 6 0 10 7 10 15 0 8 -4 15 -10 15 -5 0
-10 -7 -10 -15z"/>
<path d="M3712 1420 c0 -14 2 -19 5 -12 2 6 2 18 0 25 -3 6 -5 1 -5 -13z"/>
<path d="M3705 1370 c3 -5 8 -10 11 -10 2 0 4 5 4 10 0 6 -5 10 -11 10 -5 0
-7 -4 -4 -10z"/>
<path d="M3712 1320 c0 -19 2 -27 5 -17 2 9 2 25 0 35 -3 9 -5 1 -5 -18z"/>
<path d="M3704 1204 c6 -90 16 -94 16 -6 0 41 -4 72 -10 72 -6 0 -8 -26 -6
-66z"/>
<path d="M3334 1075 c0 -49 1 -71 3 -48 2 23 2 64 0 90 -2 26 -3 8 -3 -42z"/>
<path d="M3609 1058 c0 -40 -2 -99 -2 -130 -1 -32 1 -58 6 -58 4 0 7 59 7 130
0 72 -2 130 -5 130 -3 0 -5 -33 -6 -72z"/>
<path d="M3423 1080 c0 -25 2 -35 4 -22 2 12 2 32 0 45 -2 12 -4 2 -4 -23z"/>
<path d="M3243 1025 c0 -38 2 -53 4 -32 2 20 2 52 0 70 -2 17 -4 1 -4 -38z"/>
<path d="M3700 975 c0 -8 5 -15 10 -15 6 0 10 7 10 15 0 8 -4 15 -10 15 -5 0
-10 -7 -10 -15z"/>
<path d="M3333 930 c0 -30 2 -43 4 -27 2 15 2 39 0 55 -2 15 -4 2 -4 -28z"/>
<path d="M3243 915 c0 -22 2 -30 4 -17 2 12 2 30 0 40 -3 9 -5 -1 -4 -23z"/>
<path d="M2388 3603 c6 -2 18 -2 25 0 6 3 1 5 -13 5 -14 0 -19 -2 -12 -5z"/>
<path d="M3267 3553 c-11 -10 -8 -43 3 -43 6 0 10 -9 10 -20 0 -11 5 -20 10
-20 6 0 10 8 10 19 0 24 -25 73 -33 64z"/>
<path d="M2282 3495 c0 -16 2 -22 5 -12 2 9 2 23 0 30 -3 6 -5 -1 -5 -18z"/>
<path d="M2281 3304 c0 -11 3 -14 6 -6 3 7 2 16 -1 19 -3 4 -6 -2 -5 -13z"/>
<path d="M895 3190 c3 -5 15 -10 26 -10 10 0 19 5 19 10 0 6 -12 10 -26 10
-14 0 -23 -4 -19 -10z"/>
<path d="M3067 3110 c-27 -5 -68 -11 -91 -14 -269 -37 -562 -78 -606 -86 -30
-5 -70 -11 -87 -12 -18 -1 -33 -6 -33 -11 0 -5 15 -7 33 -4 17 2 115 16 217
30 102 15 232 34 290 42 58 8 141 20 185 26 124 17 129 17 155 28 21 8 22 10
5 9 -11 0 -42 -4 -68 -8z"/>
<path d="M1240 3101 c0 -11 31 -24 39 -16 3 3 -1 10 -9 15 -19 12 -30 12 -30
1z"/>
<path d="M340 2900 l-45 -7 45 -1 c25 0 54 3 65 8 l20 9 -20 -1 c-11 -1 -40
-4 -65 -8z"/>
<path d="M223 2883 c9 -2 25 -2 35 0 9 3 1 5 -18 5 -19 0 -27 -2 -17 -5z"/>
<path d="M123 2873 c9 -2 23 -2 30 0 6 3 -1 5 -18 5 -16 0 -22 -2 -12 -5z"/>
<path d="M28 2863 c12 -2 32 -2 45 0 12 2 2 4 -23 4 -25 0 -35 -2 -22 -4z"/>
<path d="M950 2820 c8 -5 24 -10 34 -10 26 0 18 6 -19 14 -22 5 -26 4 -15 -4z"/>
<path d="M250 2760 c0 -5 -9 -10 -20 -10 -11 0 -20 -7 -20 -15 0 -21 23 -19
43 3 19 21 22 32 7 32 -5 0 -10 -4 -10 -10z"/>
<path d="M23 2733 c-13 -3 -23 -12 -23 -22 0 -15 9 -16 68 -13 69 4 89 12 78
31 -7 11 -77 13 -123 4z"/>
<path d="M783 2640 c0 -47 2 -66 4 -42 2 23 2 61 0 85 -2 23 -4 4 -4 -43z"/>
<path d="M38 2563 l-38 -4 2 -507 c1 -279 3 -478 5 -443 3 52 7 64 24 68 10 3
19 9 19 12 0 4 13 8 30 8 36 0 45 -20 35 -78 -6 -34 -10 -40 -26 -36 -15 4
-19 0 -19 -21 1 -25 2 -25 14 -9 21 27 26 21 26 -29 0 -43 2 -46 23 -40 12 3
32 6 44 6 18 0 22 6 21 30 -1 17 -5 30 -10 30 -4 0 -8 -4 -8 -10 0 -5 -7 -10
-15 -10 -11 0 -15 13 -17 53 -2 101 10 237 23 237 4 0 9 26 11 57 3 57 23 84
31 41 l4 -23 2 23 c0 12 8 22 16 22 9 0 15 -9 16 -22 l0 -23 9 23 c5 12 14 22
19 22 5 0 12 -10 14 -22 l4 -23 2 23 c1 30 23 24 32 -9 7 -24 7 -24 8 4 1 31
15 35 30 10 9 -16 10 -16 11 -1 0 9 6 19 13 21 6 3 -39 6 -100 6 -101 1 -113
3 -113 19 0 186 -10 563 -15 580 -8 23 -26 25 -127 15z"/>
<path d="M2150 2470 c-8 -5 -25 -10 -37 -10 -22 0 -30 -10 -17 -23 5 -5 74 31
74 39 0 6 -3 5 -20 -6z"/>
<path d="M2538 2323 c7 -3 16 -2 19 1 4 3 -2 6 -13 5 -11 0 -14 -3 -6 -6z"/>
<path d="M2504 2240 c22 -6 46 -15 53 -22 7 -6 16 -8 20 -4 13 13 -14 26 -62
31 -50 5 -50 5 -11 -5z"/>
<path d="M3980 2185 c-8 -9 -8 -15 -2 -15 12 0 26 19 19 26 -2 2 -10 -2 -17
-11z"/>
<path d="M2330 2180 c0 -5 5 -10 11 -10 5 0 7 5 4 10 -3 6 -8 10 -11 10 -2 0
-4 -4 -4 -10z"/>
<path d="M225 2160 c17 -7 17 -9 3 -9 -11 -1 -18 -9 -18 -22 0 -17 5 -20 32
-17 27 3 32 7 33 31 2 25 -1 27 -34 26 -29 0 -32 -2 -16 -9z"/>
<path d="M230 2090 c13 -8 12 -10 -2 -10 -11 0 -18 -8 -18 -20 0 -16 7 -20 35
-20 28 0 35 4 35 20 0 11 -7 20 -16 20 -8 0 -12 5 -9 10 3 6 -4 10 -17 10 -18
0 -20 -2 -8 -10z"/>
<path d="M2688 2030 c-3 -19 0 -31 10 -35 20 -7 22 -7 22 10 0 8 4 15 9 15 5
0 7 -9 4 -20 -5 -17 0 -20 26 -20 17 0 31 3 31 7 0 12 -72 73 -86 73 -6 0 -14
-13 -16 -30z"/>
<path d="M640 1730 c-5 -107 -6 -115 -25 -115 -14 0 -21 -8 -23 -27 -4 -29
-32 -48 -32 -21 0 12 -3 14 -11 6 -6 -6 -9 -23 -7 -39 2 -24 8 -30 32 -32 19
-2 32 2 38 12 5 9 14 14 19 11 5 -4 7 -11 4 -16 -4 -5 -1 -9 4 -9 6 0 11 21
11 50 0 30 4 50 11 50 8 0 8 4 1 13 -6 7 -13 62 -14 123 l-3 109 -5 -115z"/>
<path d="M541 1674 c0 -11 3 -14 6 -6 3 7 2 16 -1 19 -3 4 -6 -2 -5 -13z"/>
<path d="M1570 1639 c0 -5 5 -7 10 -4 6 3 10 8 10 11 0 2 -4 4 -10 4 -5 0 -10
-5 -10 -11z"/>
<path d="M77 1633 c-3 -5 -2 -15 2 -22 7 -10 10 -10 16 -1 4 6 3 16 -3 22 -5
5 -12 6 -15 1z"/>
<path d="M35 1581 c-9 -30 6 -50 17 -21 5 14 5 27 -1 33 -5 5 -12 1 -16 -12z"/>
<path d="M1550 1590 c0 -5 5 -10 10 -10 6 0 10 5 10 10 0 6 -4 10 -10 10 -5 0
-10 -4 -10 -10z"/>
<path d="M1455 1582 c-24 -5 -45 -21 -45 -34 0 -7 4 -7 13 -1 6 6 25 15 42 20
31 10 23 22 -10 15z"/>
<path d="M1648 1573 c34 -9 65 -13 69 -10 11 11 1 15 -67 21 l-65 6 63 -17z"/>
<path d="M2215 1551 c-7 -24 2 -61 16 -61 5 0 6 17 3 38 -7 46 -10 49 -19 23z"/>
<path d="M372 1540 c0 -14 2 -19 5 -12 2 6 2 18 0 25 -3 6 -5 1 -5 -13z"/>
<path d="M1408 1523 c7 -3 16 -2 19 1 4 3 -2 6 -13 5 -11 0 -14 -3 -6 -6z"/>
<path d="M72 1504 c-7 -8 -8 -14 -3 -14 10 0 25 19 20 25 -2 1 -10 -3 -17 -11z"/>
<path d="M33 1444 l-31 -16 -2 -163 -1 -163 73 -7 c40 -3 91 -7 113 -9 22 -2
47 -5 55 -9 8 -3 62 -10 120 -16 58 -6 146 -16 197 -23 51 -6 95 -9 99 -5 6 6
-12 145 -23 174 -3 7 -18 13 -34 13 -17 0 -28 5 -27 12 2 7 -19 17 -47 25
l-50 12 48 -2 c26 -1 47 1 47 5 0 13 28 9 34 -4 3 -7 4 3 3 22 l-2 35 -102 3
c-87 2 -103 0 -103 -13 0 -8 -4 -15 -10 -15 -5 0 -10 14 -10 30 0 26 4 30 28
31 24 2 24 2 4 6 -24 5 -26 23 -2 31 7 3 10 0 7 -5 -3 -5 9 -7 27 -5 17 2 56
-1 85 -6 29 -5 49 -6 44 -1 -16 16 -186 34 -191 21 -2 -7 -8 -10 -12 -7 -5 3
-11 1 -15 -5 -3 -5 -1 -10 6 -10 8 0 8 -4 -1 -15 -7 -8 -17 -12 -22 -9 -6 4
-8 -2 -3 -15 8 -25 -4 -50 -15 -31 -4 7 -29 -33 -61 -99 -37 -75 -59 -110 -71
-110 -24 -1 -23 5 16 86 50 102 50 104 -9 119 -27 8 -63 14 -79 14 -40 0 -96
21 -96 36 0 18 30 25 110 27 46 0 71 5 74 14 4 9 22 11 66 8 34 -3 60 -1 60 4
0 21 -256 27 -305 6 -19 -7 -19 -7 -4 9 11 12 41 20 90 26 l74 7 -60 1 c-36 1
-72 -5 -92 -14z m27 -48 c0 -2 -7 -7 -16 -10 -8 -3 -12 -2 -9 4 6 10 25 14 25
6z m377 -92 c-3 -3 -12 -4 -19 -1 -8 3 -5 6 6 6 11 1 17 -2 13 -5z"/>
<path d="M208 1443 c7 -3 16 -2 19 1 4 3 -2 6 -13 5 -11 0 -14 -3 -6 -6z"/>
<path d="M2210 1441 c0 -5 5 -13 10 -16 6 -3 10 -2 10 4 0 5 -4 13 -10 16 -5
3 -10 2 -10 -4z"/>
<path d="M450 1369 c0 -5 5 -7 10 -4 6 3 10 8 10 11 0 2 -4 4 -10 4 -5 0 -10
-5 -10 -11z"/>
<path d="M125 1359 c8 -11 55 -12 55 -1 0 5 -14 9 -30 10 -17 0 -28 -4 -25 -9z"/>
<path d="M1534 1280 c-17 -9 -55 -32 -85 -51 -29 -18 -65 -34 -79 -34 -21 0
-25 -4 -22 -25 2 -20 1 -22 -8 -10 -9 12 -10 10 -4 -10 13 -48 54 -71 54 -31
0 30 44 75 104 107 45 23 86 61 74 68 -2 1 -17 -5 -34 -14z"/>
<path d="M3980 1124 c0 -8 5 -12 10 -9 6 4 8 11 5 16 -9 14 -15 11 -15 -7z"/>
<path d="M3983 1050 c0 -25 2 -35 4 -22 2 12 2 32 0 45 -2 12 -4 2 -4 -23z"/>
<path d="M428 1033 c7 -3 16 -2 19 1 4 3 -2 6 -13 5 -11 0 -14 -3 -6 -6z"/>
<path d="M55 991 c-6 -5 -21 -11 -35 -14 l-25 -4 23 -8 23 -7 -21 -35 c-13
-23 -20 -52 -20 -87 l0 -53 63 -16 c60 -16 61 -16 13 -11 -27 3 -55 8 -62 11
-12 4 -14 -30 -14 -195 0 -183 2 -201 18 -205 9 -3 42 -11 72 -18 30 -7 60
-16 65 -20 6 -3 46 -15 90 -24 167 -37 185 -44 207 -81 35 -60 114 -84 278
-87 l102 -2 -6 -60 c-6 -65 -9 -66 41 4 30 41 44 51 71 52 25 0 25 1 -8 13
-19 7 -70 21 -112 31 -50 12 -78 24 -78 32 0 8 11 40 24 72 22 50 96 287 96
304 0 3 -20 9 -45 13 -25 3 -45 11 -45 16 0 7 17 8 45 5 l44 -7 7 38 c3 20 10
53 15 72 13 53 12 55 -33 57 -22 2 -52 10 -64 18 -13 8 -35 15 -49 15 -15 0
-24 4 -20 10 4 6 -8 10 -29 10 -20 0 -36 5 -36 10 0 6 -6 5 -14 -2 -12 -11
-12 -14 2 -22 57 -33 142 -151 127 -176 -8 -13 -35 -1 -35 16 0 7 -13 20 -28
28 -16 8 -35 22 -42 31 -41 49 -154 76 -215 51 -21 -9 -41 -14 -43 -11 -10 10
62 68 95 77 46 12 44 38 -3 38 -20 0 -63 7 -97 15 -34 8 -93 19 -132 26 -38 6
-79 16 -90 21 -15 6 -13 7 10 3 17 -3 113 -16 215 -30 102 -14 210 -30 240
-35 103 -19 249 -36 244 -29 -4 7 -40 14 -244 45 -140 21 -345 54 -490 78 -8
2 -15 9 -15 17 0 17 -65 25 -80 10z m40 -41 c18 -8 17 -9 -7 -9 -16 -1 -28 4
-28 9 0 12 8 12 35 0z m45 -10 c0 -5 -4 -10 -10 -10 -5 0 -10 5 -10 10 0 6 5
10 10 10 6 0 10 -4 10 -10z m152 -213 c45 -8 83 -10 92 -5 12 7 14 5 10 -7 -3
-8 -12 -15 -18 -15 -26 0 -230 40 -235 46 -6 7 18 4 151 -19z m297 -183 c1 5
8 3 16 -4 9 -8 15 -8 15 -2 0 6 -6 12 -12 15 -7 2 -10 7 -7 11 19 20 69 -42
69 -85 0 -12 -7 -30 -16 -40 -16 -18 -11 -44 7 -34 5 4 9 -1 9 -10 0 -11 -6
-15 -18 -11 -12 4 -27 -3 -42 -19 -28 -30 -55 -32 -72 -6 -6 10 -17 17 -24 14
-9 -3 -3 -18 17 -48 31 -46 49 -58 76 -49 15 5 15 3 -1 -10 -25 -20 -34 -20
-72 3 -22 13 -37 34 -48 67 -21 62 -21 65 9 60 22 -4 24 -2 15 15 -6 11 -7 25
-3 32 4 6 6 20 5 30 -4 23 15 22 23 -2 7 -24 38 -52 33 -31 -2 8 6 15 17 17
11 1 14 0 8 -3 -7 -3 -13 -14 -13 -24 0 -10 -6 -20 -12 -23 -16 -5 8 -37 27
-37 32 0 35 95 4 134 -24 30 -32 32 -53 11 -9 -9 -17 -11 -21 -5 -3 5 -1 10 4
10 6 0 11 10 11 23 0 18 2 19 10 7 8 -12 11 -11 17 10 l7 25 7 -25 c4 -14 7
-21 8 -16z m61 -194 c0 -5 -4 -10 -10 -10 -5 0 -10 5 -10 10 0 6 5 10 10 10 6
0 10 -4 10 -10z"/>
<path d="M630 510 c0 -5 5 -10 10 -10 6 0 10 5 10 10 0 6 -4 10 -10 10 -5 0
-10 -4 -10 -10z"/>
<path d="M640 465 c0 -8 5 -15 10 -15 6 0 10 7 10 15 0 8 -4 15 -10 15 -5 0
-10 -7 -10 -15z"/>
<path d="M3980 890 c0 -16 2 -30 4 -30 2 0 6 14 8 30 3 17 1 30 -4 30 -4 0 -8
-13 -8 -30z"/>
<path d="M3932 860 c0 -14 2 -19 5 -12 2 6 2 18 0 25 -3 6 -5 1 -5 -13z"/>
<path d="M1814 765 c-8 -19 -14 -29 -40 -58 -5 -7 -16 -25 -23 -42 -8 -16 -37
-48 -64 -70 -67 -52 -167 -153 -167 -167 0 -6 -8 -17 -17 -24 -21 -16 -67 -19
-58 -4 3 6 0 10 -8 10 -8 0 -21 10 -29 22 -11 16 -20 20 -41 14 -16 -4 -27
-13 -27 -24 -1 -15 -2 -15 -16 3 -12 14 -18 16 -21 7 -3 -7 -11 -18 -18 -26
-8 -7 -25 -30 -38 -50 -20 -28 -26 -32 -31 -20 -4 9 -1 23 5 30 9 11 8 14 -3
14 -8 0 -19 -18 -25 -42 -15 -53 -14 -171 1 -163 6 3 19 8 28 11 9 3 19 16 21
28 4 17 5 16 6 -6 0 -15 6 -30 12 -34 8 -4 8 -9 0 -17 -7 -7 -7 -14 0 -24 9
-10 8 -13 -4 -13 -9 0 -20 -6 -24 -13 -4 -7 -27 -21 -51 -31 -29 -13 -41 -24
-37 -34 3 -7 5 -20 5 -28 0 -12 53 -14 341 -14 325 0 341 1 346 19 2 10 16 24
30 30 37 17 27 52 -21 70 -68 26 -248 -12 -299 -64 -10 -9 -21 -14 -25 -11
-15 16 27 62 88 95 63 35 69 36 168 36 112 0 121 6 82 55 -20 26 -26 50 -12
50 10 0 9 131 -3 335 -8 145 -17 188 -31 150z m-94 -321 c0 -8 -4 -14 -10 -14
-5 0 -10 9 -10 21 0 11 5 17 10 14 6 -3 10 -13 10 -21z m-410 -94 c0 -5 -5
-10 -11 -10 -5 0 -7 5 -4 10 3 6 8 10 11 10 2 0 4 -4 4 -10z m420 -130 c0 -5
-10 -10 -22 -10 -19 0 -20 2 -8 10 19 13 30 13 30 0z"/>
<path d="M3702 720 c0 -14 2 -19 5 -12 2 6 2 18 0 25 -3 6 -5 1 -5 -13z"/>
<path d="M3931 684 c0 -11 3 -14 6 -6 3 7 2 16 -1 19 -3 4 -6 -2 -5 -13z"/>
<path d="M3717 523 c-15 -14 -6 -23 22 -23 37 0 49 16 18 24 -28 7 -32 7 -40
-1z"/>
<path d="M3780 470 c0 -5 5 -10 10 -10 6 0 10 5 10 10 0 6 -4 10 -10 10 -5 0
-10 -4 -10 -10z"/>
<path d="M3865 450 c3 -5 13 -10 21 -10 8 0 14 5 14 10 0 6 -9 10 -21 10 -11
0 -17 -4 -14 -10z"/>
<path d="M1034 104 c3 -8 1 -14 -4 -14 -6 0 -10 -8 -10 -17 0 -9 -12 -30 -27
-45 -23 -24 -24 -28 -8 -28 10 0 27 8 37 17 13 12 21 14 26 6 4 -6 25 -14 47
-18 38 -8 39 -7 24 11 -9 10 -19 27 -23 38 -4 11 -12 16 -21 12 -18 -6 -19 -1
-5 24 8 15 5 19 -16 23 -18 3 -24 1 -20 -9z"/>
</g>
</svg>
